<?xml version="1.0" standalone="no"?>
<!DOCTYPE svg PUBLIC "-//W3C//DTD SVG 20010904//EN"
 "http://www.w3.org/TR/2001/REC-SVG-20010904/DTD/svg10.dtd">
<svg version="1.0" xmlns="http://www.w3.org/2000/svg"
 width="1000.000000pt" height="1000.000000pt" viewBox="0 0 1000.000000 1000.000000"
 preserveAspectRatio="xMidYMid meet">
<metadata>
Created by potrace 1.14, written by Peter Selinger 2001-2017
</metadata>
<g transform="translate(0.000000,1000.000000) scale(0.100000,-0.100000)"
fill="#000000" stroke="none">
<path d="M0 5000 l0 -5000 5000 0 5000 0 0 5000 0 5000 -5000 0 -5000 0 0
-5000z m4395 2220 c397 -25 839 -111 1217 -236 614 -205 1085 -639 1422 -1311
123 -247 227 -516 352 -911 11 -35 445 480 944 1118 307 393 411 520 423 520
13 -1 67 -45 67 -55 0 -6 -539 -695 -764 -975 -183 -228 -339 -411 -502 -591
l-133 -147 25 -91 c75 -275 177 -749 284 -1326 34 -181 83 -445 110 -585 27
-140 46 -258 42 -261 -4 -4 -26 -10 -49 -14 l-41 -6 -11 53 c-23 115 -73 377
-126 663 -125 673 -217 1107 -306 1448 l-10 38 -120 -116 c-412 -397 -813
-650 -1228 -776 -192 -59 -373 -84 -591 -82 -224 2 -417 37 -687 124 -728 236
-1311 568 -1903 1082 -149 130 -634 616 -825 827 -83 91 -274 302 -425 469
-151 167 -299 331 -329 363 -51 56 -53 60 -37 77 11 12 15 27 11 42 -5 23 -1
25 122 58 70 18 288 81 483 138 594 175 856 249 1050 296 590 144 1068 196
1535 167z"/>
<path d="M3934 7119 c-470 -21 -926 -114 -1739 -354 -384 -113 -772 -226 -843
-245 l-43 -11 43 -48 c211 -237 807 -891 939 -1031 816 -861 1480 -1307 2404
-1615 316 -106 475 -135 738 -135 591 0 1137 269 1755 864 l120 117 -20 72
c-11 40 -45 145 -74 235 -356 1070 -883 1679 -1669 1932 -291 93 -632 165
-975 205 -148 17 -424 23 -636 14z m-518 -828 c22 -10 57 -38 77 -62 123 -143
62 -385 -108 -434 -50 -15 -60 -15 -108 -1 -64 19 -120 69 -151 135 -26 57
-27 177 -2 233 54 123 182 179 292 129z"/>
</g>
</svg>
